<svg width="105" height="48" viewBox="0 0 105 48" fill="none" xmlns="http://www.w3.org/2000/svg">
<path d="M96.5702 32.391C99.186 31.7209 101.093 30.3624 102.294 28.3088C103.493 26.2575 104.092 23.3788 104.092 19.6773V13.6556C104.092 8.97174 103.056 5.57112 100.986 3.45142C98.9141 1.33173 95.5898 0.271876 91.011 0.271876H75.3116V9.63956H88.3952C91.011 9.63956 92.3189 10.9775 92.3189 13.6533V19.6751C92.3189 22.3509 91.011 23.6911 88.3952 23.6911H75.3116V33.0588H84.4692L91.9914 47.1103H104.747L96.5702 32.391Z" fill="#C0C0BF"/>
<path d="M69.4271 47.1126H56.9986L41.2993 19.0072V47.1126H29.5236V0.269592H41.9521L57.6515 28.3749V0.269592H69.4271V47.1126Z" fill="#062838"/>
<path d="M15.1812 0.269596H9.20757V6.38024H15.1812V0.269596Z" fill="#C0C0BF"/>
<path d="M15.1812 17.5782H9.20757V23.6888H15.1812V17.5782Z" fill="#C0C0BF"/>
<path d="M15.1812 8.92388H9.20757V15.0345H15.1812V8.92388Z" fill="#C0C0BF"/>
<path d="M6.72098 8.92388H0.747375V15.0345H6.72098V8.92388Z" fill="#C0C0BF"/>
<path d="M23.6414 8.92388H17.6678V15.0345H23.6414V8.92388Z" fill="#C0C0BF"/>
</svg>
